HIERARCHY
ROOT Hips
{
	OFFSET 0.000000 0.000000 0.000000
	CHANNELS 6 Xposition Yposition Zposition Xrotation Yrotation Zrotation
	JOINT LeftUpLeg_virtual
	{
		OFFSET 0.000000 0.000000 0.000000
		CHANNELS 3 Xrotation Yrotation Zrotation
		JOINT LeftUpLeg
		{
			OFFSET 10.205400 -3.823500 0.155100
			CHANNELS 3 Xrotation Yrotation Zrotation
			JOINT LeftLeg
			{
				OFFSET 0.708757 -12.982077 0.567790
				CHANNELS 3 Xrotation Yrotation Zrotation
				JOINT LeftFoot
				{
					OFFSET -0.708756 -10.717838 -2.184338
					CHANNELS 3 Xrotation Yrotation Zrotation
					JOINT LeftToeBase
					{
						OFFSET 0.108149 -7.191104 7.560241
						CHANNELS 3 Xrotation Yrotation Zrotation
						JOINT LeftToe_End
						{
							OFFSET 0.070230 0.081724 4.490308
							CHANNELS 3 Xrotation Yrotation Zrotation
							End Site
							{
								OFFSET 0 0 0
							}
						}
					}
				}
			}
		}
	}
	JOINT RightUpLeg_virtual
	{
		OFFSET 0.000000 0.000000 0.000000
		CHANNELS 3 Xrotation Yrotation Zrotation
		JOINT RightUpLeg
		{
			OFFSET -10.205400 -3.823500 0.005500
			CHANNELS 3 Xrotation Yrotation Zrotation
			JOINT RightLeg
			{
				OFFSET -0.708756 -12.982134 0.610632
				CHANNELS 3 Xrotation Yrotation Zrotation
				JOINT RightFoot
				{
					OFFSET 0.708754 -10.717769 -1.945823
					CHANNELS 3 Xrotation Yrotation Zrotation
					JOINT RightToeBase
					{
						OFFSET -0.108140 -7.191069 7.372968
						CHANNELS 3 Xrotation Yrotation Zrotation
						JOINT RightToe_End
						{
							OFFSET -0.070227 0.081735 4.479403
							CHANNELS 3 Xrotation Yrotation Zrotation
							End Site
							{
								OFFSET 0 0 0
							}
						}
					}
				}
			}
		}
	}
	JOINT Spine_virtual
	{
		OFFSET 0.000000 0.000000 0.000000
		CHANNELS 3 Xrotation Yrotation Zrotation
		JOINT Spine
		{
			OFFSET 0.000000 6.876099 0.125700
			CHANNELS 3 Xrotation Yrotation Zrotation
			JOINT Spine1
			{
				OFFSET 0.000000 5.730043 0.104720
				CHANNELS 3 Xrotation Yrotation Zrotation
				JOINT Spine1_split
				{
					OFFSET 0.000000 5.730043 0.104720
					CHANNELS 3 Xrotation Yrotation Zrotation
					JOINT Spine2
					{
						OFFSET 0.000000 5.730043 0.104720
						CHANNELS 3 Xrotation Yrotation Zrotation
						JOINT Neck_virtual
						{
							OFFSET 0.000000 0.000000 0.000000
							CHANNELS 3 Xrotation Yrotation Zrotation
							JOINT Neck
							{
								OFFSET 0.000000 10.314075 0.188496
								CHANNELS 3 Xrotation Yrotation Zrotation
								JOINT Head
								{
									OFFSET 0.000000 7.643700 -2.377400
									CHANNELS 3 Xrotation Yrotation Zrotation
									JOINT HeadTop_End
									{
										OFFSET 0.000000 43.788605 -13.619600
										CHANNELS 3 Xrotation Yrotation Zrotation
										End Site
										{
											OFFSET 0 0 0
										}
									}
								}
							}
						}
						JOINT LeftShoulder_virtual
						{
							OFFSET 0.000000 0.000000 0.000000
							CHANNELS 3 Xrotation Yrotation Zrotation
							JOINT LeftShoulder
							{
								OFFSET 2.196100 4.412489 0.087492
								CHANNELS 3 Xrotation Yrotation Zrotation
								JOINT LeftShoulder_split
								{
									OFFSET 2.196100 4.412489 0.087492
									CHANNELS 3 Xrotation Yrotation Zrotation
									JOINT LeftArm
									{
										OFFSET 8.771219 -2.981674 -0.026999
										CHANNELS 3 Xrotation Yrotation Zrotation
										JOINT LeftForeArm
										{
											OFFSET 8.512804 0.000000 -0.000000
											CHANNELS 3 Xrotation Yrotation Zrotation
											JOINT LeftHand
											{
												OFFSET 18.484802 0.000000 -0.000000
												CHANNELS 3 Xrotation Yrotation Zrotation
												End Site
												{
													OFFSET 0 0 0
												}
											}
										}
									}
								}
							}
						}
						JOINT RightShoulder_virtual
						{
							OFFSET 0.000000 0.000000 0.000000
							CHANNELS 3 Xrotation Yrotation Zrotation
							JOINT RightShoulder
							{
								OFFSET -2.196100 4.412496 0.070690
								CHANNELS 3 Xrotation Yrotation Zrotation
								JOINT RightShoulder_split
								{
									OFFSET -2.196100 4.412496 0.070690
									CHANNELS 3 Xrotation Yrotation Zrotation
									JOINT RightArm
									{
										OFFSET -8.771282 -2.981682 -0.094208
										CHANNELS 3 Xrotation Yrotation Zrotation
										JOINT RightForeArm
										{
											OFFSET -8.494598 0.000000 0.000000
											CHANNELS 3 Xrotation Yrotation Zrotation
											JOINT RightHand
											{
												OFFSET -18.483803 0.000000 0.000001
												CHANNELS 3 Xrotation Yrotation Zrotation
												End Site
												{
													OFFSET 0 0 0
												}
											}
										}
									}
								}
							}
						}
					}
				}
			}
		}
	}
}
MOTION
Frames: 11
Frame Time: 0.03333333
0.666489 27.345495 -0.257145 0.000000 0.000000 0.000000 -9.563639 -52.694158 -2.637656 -26.415138 8.459604 27.605514 57.369286 -3.835418 3.140232 -24.644909 -7.489191 -17.335479 -4.776583 0.589166 1.078843 0.000000 0.000000 0.000000 -9.810715 -50.301393 -1.870483 -12.411687 -9.918406 -40.874762 61.474783 6.162377 -2.177748 -37.728650 -18.390979 26.061126 1.430438 0.691521 -0.319923 0.000000 0.000000 0.000000 -9.315409 -50.862247 -2.980850 11.585194 7.520715 -2.395698 0.632473 1.508480 -0.648765 0.271338 -0.224390 1.296597 0.000000 0.000000 0.000000 0.491712 2.086702 -0.565859 3.158849 14.431971 5.776416 6.654643 19.288586 -2.219810 0.000000 0.000000 0.000000 2.469190 1.312260 -0.103435 1.258348 4.082976 -7.095240 -4.998213 -4.640324 -4.174113 -51.243436 7.075363 -46.674678 179.042645 -72.691101 -178.680030 0.000000 0.000000 0.000000 2.448739 1.684487 -0.518555 3.790537 10.927180 -5.849549 0.823208 -4.456528 -1.443214 -49.916348 21.450815 87.077597 177.335439 72.033067 -176.904112 0.000000 0.000000 0.000000 
0.799172 27.108831 -0.000315 0.000000 0.000000 0.000000 -10.283610 -53.662556 -2.998536 -27.955534 7.280247 27.750333 60.079123 -3.698985 2.648795 -23.370645 -6.764780 -18.887389 -7.004248 0.529745 0.974395 0.000000 0.000000 0.000000 -10.841637 -51.665241 -2.311973 -12.935550 -10.310936 -41.822218 63.433709 7.190509 -2.210420 -39.226555 -18.675701 26.117057 2.251020 0.562059 -0.128024 0.000000 0.000000 0.000000 -9.288700 -51.291654 -2.802164 12.099170 7.715217 -2.434201 0.826423 1.363710 -0.633960 0.663172 -0.222562 1.442494 0.000000 0.000000 0.000000 0.557341 1.962320 -0.599648 3.208881 14.375911 5.732968 6.756356 19.249693 -2.034392 0.000000 0.000000 0.000000 2.439961 1.245678 -0.056649 1.155481 3.771686 -7.475593 -2.650901 -6.558159 -3.378355 -53.222402 7.166471 -47.393067 175.713952 -72.772162 177.609029 0.000000 0.000000 0.000000 2.449610 1.592777 -0.523917 3.844001 11.486880 -5.788174 1.326417 -4.725116 -0.423274 -51.151297 23.616219 87.339849 177.862784 72.564640 -177.236469 0.000000 0.000000 0.000000 
0.833489 26.572989 0.418201 0.000000 0.000000 0.000000 -10.551349 -54.619742 -2.948169 -30.743552 5.462335 29.045728 65.707458 -5.448793 1.207023 -23.281096 -7.574413 -20.764229 -11.007925 -0.296546 3.871486 0.000000 0.000000 0.000000 -11.271531 -52.664204 -2.314992 -13.477864 -9.381809 -43.318685 65.818565 8.795597 -2.894079 -39.880778 -19.267672 27.104883 1.549761 0.333018 0.695528 0.000000 0.000000 0.000000 -9.447535 -52.302368 -2.598236 13.188948 8.140498 -2.341184 0.765789 1.215558 -0.798690 0.813759 -0.235105 1.183871 0.000000 0.000000 0.000000 0.222201 1.759466 -0.774535 2.776027 14.494838 5.771746 7.431609 19.142302 -1.623525 0.000000 0.000000 0.000000 2.188158 1.148914 -0.157395 1.005530 3.445059 -8.204509 -0.823232 -7.268765 -2.161735 -53.615066 6.803446 -47.870819 170.988171 -73.209348 172.494556 0.000000 0.000000 0.000000 2.048932 1.434250 -0.641396 3.800134 12.112400 -5.561575 1.233967 -4.137423 0.100916 -52.129291 24.567028 86.689437 178.558767 73.552272 -178.256995 0.000000 0.000000 0.000000 
0.832201 25.817856 0.977993 0.000000 0.000000 0.000000 -10.465689 -55.654485 -2.621961 -34.780775 2.768096 31.484126 73.558330 -9.254824 -0.332803 -23.675879 -9.574446 -23.305271 -13.547929 -1.578201 7.711798 0.000000 0.000000 0.000000 -10.945491 -53.180676 -1.788506 -14.275342 -7.311505 -45.324691 68.013924 10.714713 -4.059638 -39.854331 -19.861270 28.555028 0.025991 0.028587 1.772472 0.000000 0.000000 0.000000 -9.760752 -53.945753 -2.482976 14.687408 8.687108 -2.111906 0.497179 1.164979 -1.108177 0.771850 0.318152 0.793271 0.000000 0.000000 0.000000 -0.451979 1.623968 -1.030044 1.770895 14.741210 5.862224 8.356609 19.238121 -1.223112 0.000000 0.000000 0.000000 1.687652 1.090150 -0.369209 0.867809 3.390533 -8.978591 0.488851 -6.529878 -0.768441 -51.866090 7.319758 -47.341189 167.466622 -72.921593 168.690154 0.000000 0.000000 0.000000 1.272173 1.301205 -0.872634 3.642721 12.695613 -5.349634 0.996363 -2.865361 0.213303 -52.802229 24.071086 85.395089 -179.888932 74.612768 179.401517 0.000000 0.000000 0.000000 
0.929239 24.923044 1.600822 0.000000 0.000000 0.000000 -9.982111 -56.929948 -1.987941 -39.306455 -0.749069 34.578826 81.301135 -13.632287 -1.640996 -24.636234 -12.016148 -24.841941 -13.971838 -2.777636 10.675756 0.000000 0.000000 0.000000 -10.339454 -53.366860 -1.031583 -15.838022 -4.351018 -47.960410 69.785197 12.671615 -5.321723 -39.248248 -20.036015 29.952937 -0.460697 -0.154550 2.568002 0.000000 0.000000 0.000000 -10.067546 -55.891820 -2.387933 16.354355 9.144077 -1.739679 0.051960 1.240345 -1.500515 0.721427 0.846068 0.376800 0.000000 0.000000 0.000000 -1.276510 1.631883 -1.303993 0.412052 15.200606 5.898569 9.136636 19.859897 -1.105318 0.000000 0.000000 0.000000 0.984408 1.127623 -0.643561 0.753751 3.704776 -9.589965 1.175131 -4.871439 1.032572 -48.135533 9.798580 -45.502819 168.261628 -70.622319 169.348735 0.000000 0.000000 0.000000 0.253821 1.224789 -1.196115 3.347976 13.045146 -5.403433 0.720884 -1.799097 0.190165 -53.411222 23.191211 84.272602 -177.361025 75.587176 175.793947 0.000000 0.000000 0.000000 
1.184965 24.007812 2.374111 0.000000 0.000000 0.000000 -9.373285 -58.306231 -1.203589 -43.439470 -5.261916 38.127731 87.442629 -17.935216 -1.849275 -23.942520 -14.005368 -27.018717 -14.204218 -3.537693 11.948648 0.000000 0.000000 0.000000 -9.520134 -53.919289 -0.126763 -18.676391 -1.003072 -51.506224 71.004119 14.511866 -6.238259 -37.549119 -19.527157 31.366606 0.259773 -0.057113 2.589079 0.000000 0.000000 0.000000 -10.173447 -57.589546 -2.208781 17.816055 9.312221 -1.274531 -0.466276 1.422730 -1.845063 0.445679 0.872662 0.264666 0.000000 0.000000 0.000000 -2.015710 1.773342 -1.503797 -0.990901 15.888890 5.690076 9.580965 21.333442 -1.552659 0.000000 0.000000 0.000000 0.212747 1.266378 -0.886471 0.678134 4.422871 -9.853635 1.360367 -3.117551 2.894447 -44.376091 13.859178 -42.910216 172.474721 -66.035259 173.472065 0.000000 0.000000 0.000000 -0.765626 1.237445 -1.518181 3.003926 12.977762 -5.905485 0.626850 -1.324337 0.293968 -54.165938 23.637193 84.498804 -173.973702 76.628309 171.409020 0.000000 0.000000 0.000000 
1.574950 23.206814 3.451656 0.000000 0.000000 0.000000 -8.670130 -59.992693 -0.453157 -46.066467 -10.319986 41.658779 90.344531 -21.308664 -1.024107 -20.069398 -14.838398 -31.009264 -15.879088 -3.687839 10.863930 0.000000 0.000000 0.000000 -8.942921 -55.215253 0.525379 -22.266393 2.299314 -55.930192 70.934424 16.454537 -6.669739 -34.206486 -18.098555 33.624543 0.760227 0.230795 1.541556 0.000000 0.000000 0.000000 -10.079413 -59.125519 -2.065468 18.815004 8.823269 -0.883031 -0.953498 1.599268 -2.003624 0.234764 0.741850 0.673210 0.000000 0.000000 0.000000 -2.414759 1.903883 -1.529512 -2.142296 16.920489 5.257257 9.608036 23.650886 -2.644739 0.000000 0.000000 0.000000 -0.461029 1.404562 -1.034382 0.595529 5.480817 -9.813381 1.106003 -2.157516 4.323965 -42.124628 18.331120 -40.370666 176.747728 -60.813559 177.754157 0.000000 0.000000 0.000000 -1.545973 1.253070 -1.677743 2.600730 12.418630 -6.741526 0.953106 -1.695461 1.040285 -55.335194 26.898137 86.075191 -170.518760 77.461811 167.405997 0.000000 0.000000 0.000000 
2.050729 22.575687 4.683179 0.000000 0.000000 0.000000 -7.936787 -61.825322 0.117890 -46.209460 -14.023763 45.214688 87.883033 -22.121156 -0.991608 -15.259291 -13.557723 -34.028880 -17.865862 -2.943627 7.142970 0.000000 0.000000 0.000000 -8.769557 -57.154729 0.671368 -25.083354 5.011052 -60.854595 68.911274 18.532036 -6.600731 -29.327811 -15.457239 36.590536 0.088735 0.709298 -0.220189 0.000000 0.000000 0.000000 -9.898415 -60.394541 -2.127518 19.119048 7.513106 -0.749162 -1.309973 1.590718 -1.852775 0.151676 0.148449 1.102066 0.000000 0.000000 0.000000 -2.396541 1.833635 -1.323468 -2.707772 18.308384 4.634070 9.181343 26.698733 -4.274885 0.000000 0.000000 0.000000 -0.863474 1.432186 -0.998489 0.516242 6.756766 -9.567228 0.707566 -2.097422 4.970258 -42.234598 21.293839 -38.368400 179.731906 -58.850023 -179.306386 0.000000 0.000000 0.000000 -1.866594 1.173238 -1.576663 2.118820 11.353525 -7.596694 1.052182 -2.347579 2.135767 -57.132364 33.464013 88.782214 -168.548551 77.722731 165.428684 0.000000 0.000000 0.000000 
2.514384 22.116339 6.077233 0.000000 0.000000 0.000000 -7.319447 -63.483050 0.197566 -44.369213 -15.803989 48.719545 80.006869 -20.170795 -1.773170 -11.027270 -10.017716 -35.510222 -16.952519 -1.409492 1.681521 0.000000 0.000000 0.000000 -8.844395 -59.447146 0.249471 -25.678328 6.417655 -65.661409 64.195445 20.481208 -5.887504 -23.610444 -11.824407 38.907875 -1.923637 1.331476 -1.721400 0.000000 0.000000 0.000000 -9.521276 -61.291092 -2.445165 18.540275 5.291690 -0.990589 -1.383137 1.345159 -1.328938 0.871711 -0.244773 1.497382 0.000000 0.000000 0.000000 -2.062585 1.483834 -0.852024 -2.734689 19.803806 3.895355 8.383915 30.072995 -6.171691 0.000000 0.000000 0.000000 -0.864277 1.212272 -0.715114 0.390516 7.792133 -9.038084 0.925927 -2.606451 5.165158 -44.955800 21.575091 -36.702336 -178.063086 -63.976709 -177.184314 0.000000 0.000000 0.000000 -1.591286 0.942492 -1.148200 1.617009 9.888890 -8.380686 0.339390 -2.767024 2.973021 -58.372415 42.451227 91.237879 -168.770190 77.315781 166.064315 0.000000 0.000000 0.000000 
2.905175 21.816048 7.781991 0.000000 0.000000 0.000000 -6.916434 -64.442234 -0.439295 -42.212102 -16.327747 52.127973 68.123788 -16.892475 -2.312209 -7.376814 -5.974641 -37.343161 -11.579827 -0.063742 -3.718722 0.000000 0.000000 0.000000 -9.119558 -61.086432 -0.879397 -23.285923 6.021715 -69.511067 56.885562 21.944783 -4.538881 -17.976663 -7.853273 39.363053 -4.806880 1.876456 -1.907573 0.000000 0.000000 0.000000 -8.909283 -61.585855 -3.013969 17.270046 2.259648 -1.803807 -1.233705 0.847752 -0.458023 1.787253 -0.638194 1.828747 0.000000 0.000000 0.000000 -1.598582 0.850192 -0.122953 -2.663119 21.140738 3.320843 7.304285 33.271282 -7.862151 0.000000 0.000000 0.000000 -0.486791 0.692550 -0.133511 0.201443 8.156194 -8.108915 0.869581 -2.433051 4.791628 -49.580524 19.515548 -35.104474 -173.436958 -78.563773 -172.553378 0.000000 0.000000 0.000000 -0.886484 0.498197 -0.387159 1.134378 8.056809 -8.877199 -1.012182 -2.913737 3.010378 -55.968493 51.880485 90.220508 -170.515741 76.424052 168.459717 0.000000 0.000000 0.000000 
3.196139 21.552837 9.740285 0.000000 0.000000 0.000000 -6.864633 -64.347731 -1.797261 -42.250693 -16.184647 55.488269 55.807266 -14.314253 -1.997338 -3.292448 -4.024049 -40.657121 -4.700398 0.361024 -6.657634 0.000000 0.000000 0.000000 -9.196277 -61.120918 -2.306490 -18.397196 3.759700 -71.677364 48.811903 22.553638 -2.969272 -12.815689 -4.275066 36.947683 -7.781318 2.156704 -0.175190 0.000000 0.000000 0.000000 -8.001349 -60.783609 -3.560789 15.651718 -1.106616 -3.295501 -0.944702 0.152022 0.620242 2.257411 -1.052578 2.004937 0.000000 0.000000 0.000000 -1.162500 0.047788 0.825708 -2.788633 22.032365 3.011743 6.074619 35.625693 -8.857308 0.000000 0.000000 0.000000 -0.003789 -0.044964 0.758279 0.007052 7.733829 -6.903236 0.300573 -1.416658 3.823609 -54.930447 15.949484 -33.766095 -6.883599 -79.007995 -5.808269 0.000000 0.000000 0.000000 -0.123923 -0.147626 0.586862 0.763949 6.087672 -8.961584 -2.319788 -2.489888 2.010395 -44.446083 58.860794 81.207698 -172.892087 74.636530 171.367916 0.000000 0.000000 0.000000 
